PathFileType	4	(X/Y/Z)	 s07c0102.trc
DataRate	CameraRate	NumFrames	NumMarkers	Units	OrigDataRate	OrigDataStartFrame	OrigNumFrames
200	200	4	48	mm	200	1001	2000
Frame#	Time	racr			lacr			c7			jug			rlel			rdr			llel			ldr			s2			lic			ric			lasi			rasi			rpsi			lpsi			rgt			lgt			rth1			rth2			rth3			rth4			rlfc			rmfc			rsh1			rsh2			rsh3			rsh4			rlmal			rcal			rtoe			rmt5			lth1			lth2			lth4			lth3			llfc			lmfc			lsh1			lsh2			lsh3			lsh4			llmal			lcal			ltoe			lmt5			SBIKE			LBIKE			RBIKE			
		X1	Y1	Z1	X2	Y2	Z2	X3	Y3	Z3	X4	Y4	Z4	X5	Y5	Z5	X6	Y6	Z6	X7	Y7	Z7	X8	Y8	Z8	X9	Y9	Z9	X10	Y10	Z10	X11	Y11	Z11	X12	Y12	Z12	X13	Y13	Z13	X14	Y14	Z14	X15	Y15	Z15	X16	Y16	Z16	X17	Y17	Z17	X18	Y18	Z18	X19	Y19	Z19	X20	Y20	Z20	X21	Y21	Z21	X22	Y22	Z22	X23	Y23	Z23	X24	Y24	Z24	X25	Y25	Z25	X26	Y26	Z26	X27	Y27	Z27	X28	Y28	Z28	X29	Y29	Z29	X30	Y30	Z30	X31	Y31	Z31	X32	Y32	Z32	X33	Y33	Z33	X34	Y34	Z34	X35	Y35	Z35	X36	Y36	Z36	X37	Y37	Z37	X38	Y38	Z38	X39	Y39	Z39	X40	Y40	Z40	X41	Y41	Z41	X42	Y42	Z42	X43	Y43	Z43	X44	Y44	Z44	X45	Y45	Z45	X46	Y46	Z46	X47	Y47	Z47	X48	Y48	Z48	
1001	5.0050	502.181212	1377.469873	-97.274860	481.606773	1400.407723	-350.628659	452.361991	1439.577287	-219.056052	417.438202	1294.430516	-232.770956	496.326187	1066.782706	70.786413	716.958296	914.912618	-43.118264	510.081968	1094.696703	-514.394746	726.257171	916.256326	-406.983609	-132.949657	1205.457235	-210.550065	6.463329	1292.718370	-348.380079	52.226789	1225.171668	-71.860599	41.402793	1215.050728	-341.405073	64.808717	1179.651287	-93.093808	-100.645289	1237.528010	-155.917338	-104.759435	1265.984869	-257.520952	-3.991039	1092.767699	-42.760135	-28.532106	1136.362464	-402.401349	119.406439	997.291282	-48.484441	193.483253	950.844898	-57.631042	236.939267	877.362594	-57.163882	217.103414	974.920831	-73.639755	312.397193	762.655232	-86.786188	297.878567	748.803889	-191.251496	219.737329	655.299227	-63.962298	182.952358	575.923113	-78.512788	112.722149	523.939731	-74.612992	197.312446	566.494666	-116.394783	22.562796	421.785448	-73.418797	-48.887589	441.627217	-106.181776	125.373185	208.608550	-122.930929	50.373539	245.969379	-53.238271	72.330635	1052.329124	-408.146909	157.623961	1028.904090	-406.912033	175.621023	1059.675087	-398.238558	220.399520	966.027011	-401.645474	359.388832	855.712465	-367.201993	349.974588	831.720009	-272.123989	313.181777	712.225790	-394.140326	306.253495	627.926557	-377.005420	259.582964	551.705220	-387.920854	307.657792	629.417517	-334.951553	207.887084	426.095482	-394.096216	142.312787	372.757910	-364.678170	428.743918	416.510846	-354.151704	356.000215	374.400460	-421.240463	-259.354131	972.962960	-232.449903	-75.823643	83.326070	-438.422851	-82.713023	79.175388	-40.953035	
1002	5.0100	500.212793	1379.550994	-95.244489	482.718691	1401.922429	-349.197368	451.704430	1441.502594	-217.124063	417.052234	1296.324298	-231.276199	495.888771	1067.246465	70.227129	716.812565	915.096784	-43.239935	512.234996	1096.958370	-514.581076	726.469090	916.290755	-407.050695	-132.833147	1204.399294	-212.535171	7.096671	1290.985531	-350.874748	51.750214	1225.285701	-73.726891	41.769515	1213.201162	-343.470635	64.745580	1180.181283	-94.999779	-100.930135	1236.666168	-158.051259	-104.738749	1264.726388	-260.201510	-2.909105	1093.740497	-43.914231	-28.364484	1133.582062	-403.807793	122.656102	1001.784038	-49.332598	197.739161	956.929157	-58.476954	242.843207	884.347664	-57.496658	220.632876	981.459216	-74.003548	319.319968	770.311122	-87.060843	305.593087	756.003171	-190.772429	225.877720	663.913692	-64.002152	188.388467	584.883545	-78.270376	117.744035	533.566023	-74.218958	203.259916	575.038648	-115.474958	27.185004	431.721437	-72.999979	-43.400937	454.684389	-105.989365	121.692053	215.053417	-122.774695	48.044030	255.088551	-53.241509	70.788913	1047.058587	-409.338073	155.458437	1021.583267	-408.467746	174.282988	1051.889586	-400.292698	216.712415	957.118638	-402.767851	353.844766	845.290896	-368.745794	343.641337	819.897739	-273.974865	309.804421	701.416467	-395.303803	304.157637	617.151068	-377.909939	259.183262	540.310091	-389.309677	304.948307	618.797045	-335.825003	208.863046	412.929693	-394.482250	144.146097	358.640359	-364.822342	429.900609	406.978963	-354.330452	357.835999	363.620639	-421.230300	-259.360077	972.988093	-232.593563	-75.824521	83.330760	-438.406913	-82.724423	79.189679	-40.953767	
1003	5.0150	498.263987	1381.821277	-93.271494	483.753553	1403.729930	-347.815992	450.817710	1443.765167	-215.405823	416.641755	1298.517810	-230.083895	495.541462	1068.036284	69.771250	716.957554	915.193754	-43.635233	514.708333	1099.564810	-514.515315	726.842573	916.372045	-407.202855	-132.646782	1203.489667	-214.736391	7.906881	1289.255915	-353.701166	51.057712	1225.660986	-75.502780	42.375168	1211.553980	-345.552590	64.688181	1181.095637	-96.925720	-101.223153	1236.030401	-160.334701	-104.728599	1263.608301	-263.047351	-1.724852	1095.003019	-45.129062	-27.958434	1131.080992	-405.291855	125.905312	1006.140987	-49.910170	201.856594	962.855495	-59.183924	248.543351	891.414120	-57.774260	224.144553	987.968458	-74.881694	326.187772	778.306965	-87.430970	313.410986	763.014647	-191.664959	232.049475	672.677377	-64.119706	194.042404	593.726099	-78.010898	123.100815	542.965902	-73.937350	209.280904	583.279243	-114.888833	32.307643	441.440146	-72.617582	-37.627112	467.499587	-105.939970	118.906763	222.112328	-122.206808	46.448488	264.415982	-53.035949	69.469523	1042.621163	-410.758522	153.413616	1014.848359	-409.970053	173.154088	1044.872546	-402.198253	212.960847	948.870171	-404.058869	348.273250	835.224313	-370.214088	337.414078	811.384274	-275.229004	306.442114	691.300148	-396.881836	301.708528	606.942829	-378.838261	257.367515	529.083464	-389.296087	302.000708	608.793913	-336.661553	209.223376	400.428417	-394.228510	145.469605	345.311702	-364.865984	430.643856	397.010592	-354.323512	359.141416	352.785724	-421.214425	-259.265574	973.107672	-233.042573	-75.834397	83.324290	-438.415284	-82.741942	79.216343	-40.958416	
1004	5.0200	496.168110	1384.371424	-91.115721	484.854339	1405.651635	-346.297362	449.765213	1446.420460	-213.646422	416.011601	1301.121533	-228.864596	495.455680	1068.866893	69.047410	717.081247	915.474697	-43.871476	517.242459	1102.027065	-513.569815	727.243162	916.486997	-407.356224	-132.421045	1202.809368	-217.074237	8.664652	1287.950416	-356.565212	50.290884	1226.324783	-77.224156	43.197132	1210.201932	-347.791320	64.620717	1182.160275	-98.808124	-101.803334	1235.781007	-162.416181	-104.764501	1262.721628	-265.968900	-0.575720	1096.557438	-46.314306	-27.442679	1128.976161	-406.761291	128.906196	1010.380390	-50.152627	205.704102	969.041154	-59.419396	254.045650	898.597665	-57.998830	227.313432	994.267963	-75.812660	333.102511	786.792966	-87.207130	320.349958	770.544077	-192.094420	238.252487	681.431014	-64.315364	199.837621	602.651562	-77.938161	128.728070	552.166069	-73.790314	215.294920	591.823698	-114.623601	37.771692	451.263158	-72.212874	-30.616571	479.675548	-106.214750	117.811755	229.539641	-121.546454	45.391802	273.904113	-53.079634	68.343418	1038.845401	-412.399744	151.526423	1008.864132	-411.474890	172.047459	1038.166793	-403.923596	209.296107	941.359228	-405.532718	342.373400	825.548487	-371.841227	331.470316	801.992403	-277.254229	302.402465	681.320639	-398.115822	298.943488	597.470021	-380.037510	255.789677	518.264976	-390.123559	298.799218	598.933973	-337.637281	209.362018	388.518141	-394.559171	146.282992	332.603281	-364.962272	430.731354	385.794907	-352.238833	359.924400	341.898893	-421.172597	-259.308603	973.127384	-233.157359	-75.837662	83.335806	-438.411026	-82.722679	79.210186	-40.993066	
